<?xml version="1.0" encoding="UTF-8"?>
<!DOCTYPE svg PUBLIC "-//W3C//DTD SVG 1.1//EN" "http://www.w3.org/Graphics/SVG/1.1/DTD/svg11.dtd">
<svg xmlns="http://www.w3.org/2000/svg" version="1.1" width="523px" height="96px" style="shape-rendering:geometricPrecision; text-rendering:geometricPrecision; image-rendering:optimizeQuality; fill-rule:evenodd; clip-rule:evenodd" xmlns:xlink="http://www.w3.org/1999/xlink">
<g><path style="opacity:0.91" fill="#60bbe6" d="M 511.5,-0.5 C 514.167,-0.5 516.833,-0.5 519.5,-0.5C 519.5,2.16667 519.5,4.83333 519.5,7.5C 435.689,11.88 352.189,16.2134 269,20.5C 266.95,20.309 265.117,19.6424 263.5,18.5C 262.494,18.9377 262.494,19.6043 263.5,20.5C 256.198,21.5453 248.865,22.212 241.5,22.5C 241.671,19.2027 241.005,18.8694 239.5,21.5C 237.577,22.3078 235.577,22.8078 233.5,23C 155.155,26.9921 77.1548,30.8254 -0.5,34.5C -0.5,31.8333 -0.5,29.1667 -0.5,26.5C 3.76746,26.203 7.93412,26.5363 12,27.5C 14.405,26.7256 16.905,26.2256 19.5,26C 100.211,21.6093 180.878,17.1093 261.5,12.5C 262.833,13.1667 264.167,13.8333 265.5,14.5C 269.644,12.8822 273.978,12.0489 278.5,12C 292.808,11.3055 306.974,10.4721 321,9.5C 322.326,9.75493 323.326,10.4216 324,11.5C 327.51,9.78146 331.344,8.94812 335.5,9C 344.347,8.69639 353.18,8.19639 362,7.5C 363.764,7.54449 365.431,7.87782 367,8.5C 375.236,6.42331 383.57,6.08998 392,7.5C 394.43,5.39385 397.097,5.06052 400,6.5C 412.284,5.02154 424.618,4.02154 437,3.5C 438.226,3.64477 439.393,3.9781 440.5,4.5C 464.29,2.79132 487.957,1.12465 511.5,-0.5 Z"/></g>
<g><path style="opacity:0.927" fill="#60bbe6" d="M 488.5,10.5 C 505.52,10.1871 514.52,18.5204 515.5,35.5C 515.874,44.2523 512.707,51.2523 506,56.5C 504.274,55.4238 502.441,55.2571 500.5,56C 501.711,56.8928 501.711,57.7261 500.5,58.5C 489.792,62.0209 480.625,59.6875 473,51.5C 467,40.5 467,29.5 473,18.5C 477.143,13.6337 482.31,10.967 488.5,10.5 Z M 487.5,19.5 C 495.666,18.337 500.999,21.6703 503.5,29.5C 506.634,38.6462 504.301,45.8129 496.5,51C 488.149,52.5795 482.649,49.4128 480,41.5C 477.405,32.2292 479.905,24.8959 487.5,19.5 Z"/></g>
<g><path style="opacity:0.903" fill="#60bbe6" d="M 442.5,13.5 C 449.508,13.3337 456.508,13.5004 463.5,14C 465.994,16.2436 465.994,18.5769 463.5,21C 461.782,21.346 460.115,21.846 458.5,22.5C 457.833,21.8333 457.167,21.1667 456.5,20.5C 454.677,21.7472 452.677,22.4139 450.5,22.5C 450.669,34.0428 451.336,45.5428 452.5,57C 450.151,63.0089 446.651,63.8423 442,59.5C 441.227,47.6688 440.393,35.6688 439.5,23.5C 435.486,23.6655 431.486,23.4988 427.5,23C 424.694,21.6949 423.86,19.5282 425,16.5C 427.247,15.0199 429.747,14.3533 432.5,14.5C 435.915,14.8617 439.082,15.195 442,15.5C 442.464,14.9056 442.631,14.2389 442.5,13.5 Z"/></g>
<g><path style="opacity:0.888" fill="#60bbe6" d="M 409.5,15.5 C 412.85,15.335 416.183,15.5017 419.5,16C 420.833,17 420.833,18 419.5,19C 421.849,21.3568 421.183,23.0235 417.5,24C 410.508,24.4996 403.508,24.6663 396.5,24.5C 395.895,28.315 395.895,31.9817 396.5,35.5C 403.832,34.8885 411.165,34.7219 418.5,35C 421.167,37.3333 421.167,39.6667 418.5,42C 411.393,42.1061 404.393,42.9394 397.5,44.5C 397.311,47.9851 397.311,51.6518 397.5,55.5C 405.503,54.9991 413.503,54.8324 421.5,55C 425.386,57.5257 425.386,60.1923 421.5,63C 410.834,63.7898 400.167,64.1231 389.5,64C 387.763,60.9744 386.763,57.641 386.5,54C 386.645,52.7741 386.978,51.6074 387.5,50.5C 386.033,40.0438 385.533,29.7105 386,19.5C 389.937,16.4319 394.271,15.7653 399,17.5C 402.603,16.8648 406.103,16.1982 409.5,15.5 Z"/></g>
<g><path style="opacity:0.906" fill="#60bbe6" d="M 351.5,17.5 C 358.508,17.3337 365.508,17.5004 372.5,18C 382.835,22.231 385.335,29.3977 380,39.5C 377.715,40.8189 375.548,42.3189 373.5,44C 379.476,48.3034 383.476,53.97 385.5,61C 385.355,61.772 385.022,62.4387 384.5,63C 382.341,63.912 380.175,64.7454 378,65.5C 373.988,60.1284 369.988,54.795 366,49.5C 363.087,46.6357 359.753,45.6357 356,46.5C 355.667,50.1667 355.333,53.8333 355,57.5C 352.851,59.724 353.351,61.224 356.5,62C 353.62,67.0848 350.12,67.9181 346,64.5C 344.895,50.8233 344.062,37.4899 343.5,24.5C 344.339,19.9899 347.006,17.6565 351.5,17.5 Z M 357.5,25.5 C 361.534,25.6721 365.534,26.1721 369.5,27C 372.948,29.3558 373.281,32.1891 370.5,35.5C 369.086,36.624 367.586,37.624 366,38.5C 362.257,37.859 358.423,37.859 354.5,38.5C 354.5,34.5 354.5,30.5 354.5,26.5C 355.791,26.7373 356.791,26.404 357.5,25.5 Z"/></g>
<g><path style="opacity:0.879" fill="#60bbe6" d="M 318.5,19.5 C 330.513,17.9956 338.513,22.8289 342.5,34C 342.241,35.2613 341.574,36.2613 340.5,37C 335.345,38.4131 332.012,36.5798 330.5,31.5C 321.116,25.477 314.616,27.8103 311,38.5C 308.692,47.8456 311.359,55.1789 319,60.5C 322.026,60.6406 325.193,60.1406 328.5,59C 330.743,56.1784 333.41,53.845 336.5,52C 333.258,51.7167 332.924,50.8834 335.5,49.5C 336.086,49.7093 336.586,50.0426 337,50.5C 338.143,47.0847 339.81,46.7514 342,49.5C 342.817,52.9643 342.483,56.2976 341,59.5C 337.845,61.6899 335.011,64.1899 332.5,67C 313.078,72.2018 302.078,64.8684 299.5,45C 300.285,40.0726 301.452,35.2393 303,30.5C 306.984,24.9931 312.151,21.3264 318.5,19.5 Z"/></g>
<g><path style="opacity:0.907" fill="#60bbe6" d="M 275.5,22.5 C 281.486,22.6328 287.819,22.9662 294.5,23.5C 294.291,24.086 293.957,24.586 293.5,25C 296.167,26.6667 296.167,28.3333 293.5,30C 285.847,30.7767 278.181,31.2767 270.5,31.5C 270.002,34.9925 270.002,38.3259 270.5,41.5C 273.616,41.7114 276.45,42.0447 279,42.5C 283.745,40.1568 288.578,39.9902 293.5,42C 295.439,45.6892 294.439,48.0226 290.5,49C 284.175,49.4995 277.842,49.6662 271.5,49.5C 271.793,53.4367 271.46,57.27 270.5,61C 272.366,61.9847 274.366,62.4847 276.5,62.5C 282.939,61.7207 289.606,61.554 296.5,62C 299.637,66.0949 298.637,68.7616 293.5,70C 289.29,70.7382 285.124,70.5715 281,69.5C 274.763,71.6895 268.596,71.6895 262.5,69.5C 260.888,55.5573 259.888,41.724 259.5,28C 260.101,26.395 261.101,25.0616 262.5,24C 267.019,23.8247 271.353,23.3247 275.5,22.5 Z"/></g>
<g><path style="opacity:0.884" fill="#60bbe6" d="M 231.5,24.5 C 236.695,24.6045 241.695,24.7712 246.5,25C 253.293,27.25 255.959,31.75 254.5,38.5C 252.167,41.1667 249.833,41.1667 247.5,38.5C 247.833,37.8333 248.167,37.1667 248.5,36.5C 246.135,35.9149 244.135,34.7482 242.5,33C 239.274,31.8011 235.941,31.3011 232.5,31.5C 232.085,33.7468 231.418,35.9135 230.5,38C 230.833,38.8333 231.167,39.6667 231.5,40.5C 239.915,41.7688 247.915,44.2688 255.5,48C 260.302,56.2085 259.302,63.5418 252.5,70C 251.365,70.7494 250.365,70.5827 249.5,69.5C 250.506,68.6043 250.506,67.9377 249.5,67.5C 248.756,68.9905 248.09,70.4905 247.5,72C 238.06,75.2851 229.894,73.4518 223,66.5C 220.355,62.9891 220.189,59.4891 222.5,56C 224.5,55.3333 226.5,55.3333 228.5,56C 230.717,59.4581 233.383,62.4581 236.5,65C 241.034,66.0437 244.867,64.877 248,61.5C 248.896,58.975 248.396,56.8083 246.5,55C 239.959,52.5976 233.292,50.5976 226.5,49C 217.266,38.5975 218.933,30.4309 231.5,24.5 Z M 246.5,29.5 C 251.6,29.4657 251.766,30.1323 247,31.5C 246.167,31.3333 245.333,31.1667 244.5,31C 245.416,30.7216 246.082,30.2216 246.5,29.5 Z"/></g>
<g><path style="opacity:0.938" fill="#60bbe6" d="M 191.5,26.5 C 196.543,25.4308 200.377,27.0974 203,31.5C 208.661,44.6488 214.161,57.8154 219.5,71C 217.658,74.1058 214.992,75.1058 211.5,74C 208.875,71.2555 206.875,68.0889 205.5,64.5C 199.472,63.2581 193.472,63.4247 187.5,65C 186.43,68.9623 184.763,72.629 182.5,76C 176.667,76.8333 174.167,74.3333 175,68.5C 179.404,56.6209 183.404,44.6209 187,32.5C 188.332,30.34 189.832,28.34 191.5,26.5 Z M 194.5,38.5 C 197.394,43.8263 199.727,49.4929 201.5,55.5C 197.833,55.5 194.167,55.5 190.5,55.5C 191.728,49.7917 193.061,44.125 194.5,38.5 Z"/></g>
<g><path style="opacity:0.908" fill="#60bbe6" d="M 139.5,28.5 C 145.842,28.3338 152.175,28.5005 158.5,29C 168.826,31.3202 172.326,37.4869 169,47.5C 167.093,51.0388 164.26,53.5388 160.5,55C 167.201,59.9146 171.201,66.4146 172.5,74.5C 169.779,75.1406 167.112,75.6406 164.5,76C 160.801,70.7847 156.968,65.618 153,60.5C 143.7,53.6031 140.534,55.7697 143.5,67C 140.949,69.2306 140.949,71.3972 143.5,73.5C 141.975,75.9607 139.808,77.6274 137,78.5C 135.739,78.2409 134.739,77.5742 134,76.5C 132.311,62.93 131.144,49.43 130.5,36C 131.293,30.6973 134.293,28.1973 139.5,28.5 Z M 145.5,36.5 C 150.093,36.6742 154.426,37.6742 158.5,39.5C 160.448,44.7534 158.615,48.0867 153,49.5C 149.361,49.5298 145.694,49.1965 142,48.5C 141.501,44.8484 141.335,41.1817 141.5,37.5C 143.099,37.7678 144.432,37.4345 145.5,36.5 Z"/></g>
<g><path style="opacity:0.894" fill="#60bbe6" d="M 114.5,30.5 C 118.915,30.3054 123.249,30.8054 127.5,32C 129.256,38.0014 126.923,40.3348 120.5,39C 120,38.5 119.5,38 119,37.5C 117.934,39.0995 116.434,40.0995 114.5,40.5C 113.885,51.4942 114.218,62.4942 115.5,73.5C 114.866,78.3012 112.2,80.1345 107.5,79C 106.333,78.5 105.5,77.6667 105,76.5C 104.342,64.4698 103.508,52.4698 102.5,40.5C 98.1539,40.6657 93.8206,40.499 89.5,40C 86.8333,37.6667 86.8333,35.3333 89.5,33C 93.0894,32.7931 96.5894,32.2931 100,31.5C 100.689,32.3567 101.522,33.0233 102.5,33.5C 106.546,32.1758 110.546,31.1758 114.5,30.5 Z"/></g>
<g><path style="opacity:0.901" fill="#60bbe6" d="M 40.5,34.5 C 42.861,34.6741 45.1944,35.0074 47.5,35.5C 49.0537,47.2317 49.5537,59.2317 49,71.5C 47.1299,79.6995 41.9632,83.8662 33.5,84C 24.002,86.4069 16.6686,83.5736 11.5,75.5C 11.8333,74.8333 12.1667,74.1667 12.5,73.5C 11.4783,72.646 10.6449,71.646 10,70.5C 9.13727,60.3734 8.63727,50.5401 8.5,41C 9.52816,36.7941 12.1948,35.4608 16.5,37C 17.7014,37.9025 18.5348,39.0692 19,40.5C 18.9685,49.0201 19.3018,57.6868 20,66.5C 21.3341,75.0484 26.1674,77.8818 34.5,75C 36.478,74.5193 37.8113,73.3527 38.5,71.5C 39.082,62.1982 39.082,52.8649 38.5,43.5C 39.552,43.6495 40.552,43.4828 41.5,43C 36.6427,40.8174 36.3093,37.9841 40.5,34.5 Z M 41.5,37.5 C 41.56,36.9569 41.8933,36.6236 42.5,36.5C 43.5827,37.365 43.7494,38.365 43,39.5C 42.7216,38.5842 42.2216,37.9175 41.5,37.5 Z"/></g>
<g><path style="opacity:0.944" fill="#60bbe6" d="M 54.5,34.5 C 57.3646,34.0548 59.8646,34.7215 62,36.5C 62.2703,40.3728 62.7703,44.2062 63.5,48C 61.4883,49.1516 61.3217,50.3183 63,51.5C 63.4783,58.8407 63.9783,66.1741 64.5,73.5C 71.8189,72.6454 79.1522,72.4787 86.5,73C 89.7079,76.8402 89.0412,79.5068 84.5,81C 75.1785,81.9996 65.8452,82.3329 56.5,82C 56,81.5 55.5,81 55,80.5C 53.7048,68.3744 52.5382,56.2077 51.5,44C 51.6641,40.4922 52.6641,37.3256 54.5,34.5 Z"/></g>
<g><path style="opacity:0.913" fill="#60bbe6" d="M 522.5,60.5 C 522.5,63.1667 522.5,65.8333 522.5,68.5C 490.686,70.1453 458.686,71.812 426.5,73.5C 423.629,73.3823 420.962,72.7156 418.5,71.5C 416.78,72.9549 414.78,73.7883 412.5,74C 397.171,74.9208 381.838,75.7541 366.5,76.5C 362.916,76.4816 359.416,76.1482 356,75.5C 349.806,77.0657 343.473,78.0657 337,78.5C 336.127,78.2645 335.293,77.9312 334.5,77.5C 320.884,78.8721 307.217,79.8721 293.5,80.5C 293.541,76.7566 292.874,76.5899 291.5,80C 287.5,80.3333 283.5,80.6667 279.5,81C 191.959,85.0437 104.626,89.877 17.5,95.5C 12.5,95.5 7.5,95.5 2.5,95.5C 2.5,92.8333 2.5,90.1667 2.5,87.5C 14.3438,87.0495 26.1771,86.3828 38,85.5C 39.9806,85.6292 41.6472,86.2958 43,87.5C 45.8245,85.8122 48.9912,84.9789 52.5,85C 82.4251,83.6937 112.258,81.8604 142,79.5C 143.824,80.7487 143.657,81.9153 141.5,83C 142.126,83.7504 142.626,84.5838 143,85.5C 143.273,83.6711 144.107,82.1711 145.5,81C 150.453,80.0046 155.453,79.3379 160.5,79C 200.425,76.6697 239.925,74.8363 279,73.5C 304.332,71.9335 329.832,70.2669 355.5,68.5C 354.392,70.6951 354.559,72.6951 356,74.5C 356.198,72.0895 357.364,70.4228 359.5,69.5C 368.316,68.3625 377.149,67.3625 386,66.5C 389.015,66.8246 392.015,67.1579 395,67.5C 406.278,66.3166 417.611,65.3166 429,64.5C 451.021,64.0879 473.188,63.0879 495.5,61.5C 499.365,62.3137 503.031,62.147 506.5,61C 511.823,60.5006 517.156,60.334 522.5,60.5 Z M 42.5,88.5 C 43.7562,88.4614 44.7562,88.9614 45.5,90C 44.1667,90.6667 42.8333,90.6667 41.5,90C 42.056,89.6174 42.3893,89.1174 42.5,88.5 Z"/></g>
</svg>
